<svg id="vector" viewBox="0 0 113 28" xmlns="http://www.w3.org/2000/svg">
    <path
        d="M 1.62 18.205 C 1.644 18.66 1.664 18.997 1.735 19.329 C 1.769 19.491 1.66 19.849 1.222 19.77 C 0.978 19.726 0.732 19.631 0.547 19.474 C 0.35 19.309 0.247 19.073 0.177 18.833 C 0.024 18.283 -0.311 16.635 0.712 16.658 C 0.941 16.663 1.137 16.762 1.278 16.937 C 1.551 17.282 1.596 17.781 1.62 18.205 Z M 29.531 11.324 C 29.531 11.324 28.547 3.161 21.531 0.951 C 17.617 -0.283 15.666 0.089 13.27 0.508 C 10.455 0.999 7.077 2.195 4.65 4.266 C 2.992 5.679 1.319 7.818 0.679 10.508 C 0.332 11.967 0.294 13.372 0.559 14.898 C 0.656 15.452 1.439 15.966 1.447 15.063 C 1.536 5.02 9.807 3.153 10.099 3.094 C 10.207 3.074 10.31 3.053 10.403 3.027 C 10.533 2.996 10.683 2.972 10.804 2.992 C 10.877 3.004 10.943 3.141 10.828 3.196 C 10.164 3.512 7.589 4.384 6.188 5.611 C 4.77 6.86 2.908 8.863 2.325 12.322 C 2.225 12.919 2.129 15.978 2.414 18.132 C 2.578 19.371 3.425 21.047 3.991 21.77 C 5.509 23.709 8.131 25.359 9.559 25.864 C 10.468 26.187 11.57 26.284 12.131 26.415 C 12.33 26.462 12.305 26.705 12.106 26.735 C 11.199 26.88 9.01 26.378 7.198 25.489 C 5.838 24.822 4.901 23.903 3.985 22.913 C 2.977 21.824 2.439 20.689 2.064 20.766 C 1.449 20.892 1.972 22.204 2.243 22.711 C 3.173 24.446 5.037 25.952 5.964 26.456 C 8.864 28.037 11.797 28.074 13.13 27.962 C 18.831 27.481 22.335 24.746 23.889 22.604 C 24.798 21.348 26.834 18.702 26.786 14.835 C 26.779 14.218 26.835 9.936 25.429 7.704 C 25.112 7.195 24.151 5.111 20.531 3.333 C 20.251 3.195 19.014 2.572 18.002 2.544 C 17.574 2.533 16.715 2.498 16.795 1.992 C 16.852 1.636 18.963 2.105 19.184 2.167 C 20.705 2.585 22.653 3.752 24 4.78 C 28.19 7.975 27.769 14.747 27.769 14.747 C 27.591 21.95 23.378 24.999 20.347 26.8 C 20.288 26.834 20.071 27.111 20.142 27.219 C 20.213 27.328 20.358 27.316 20.503 27.303 C 21.667 27.186 22.799 26.322 23.767 25.563 C 28.765 21.648 29.02 18.592 29.3 17.44 C 29.705 15.766 29.724 12.383 29.531 11.324 Z"
        fill="#c8102e" fill-rule="evenodd" id="path" />
    <path
        d="M 21.901 13.261 C 21.757 13.205 21.627 13.155 21.522 13.112 C 21.141 12.958 20.203 12.711 19.449 12.512 C 19.031 12.402 18.598 12.288 18.517 12.255 C 18.435 12.133 18.253 11.345 18.165 10.962 C 18.12 10.765 18.084 10.609 18.064 10.542 C 17.996 10.302 17.91 10.167 17.676 10.192 C 17.675 10.192 17.658 10.194 17.657 10.194 C 17.574 10.206 16.457 10.49 14.626 10.955 C 13.395 11.269 12.122 11.592 12.042 11.606 C 11.94 11.621 11.88 11.676 11.08 12.928 C 10.841 13.304 10.542 13.771 10.494 13.821 C 10.466 13.84 10.296 13.918 10.117 14.001 C 9.608 14.237 8.662 14.676 7.851 15.14 C 6.955 15.654 5.231 16.748 5.102 16.992 C 5.053 17.083 5.052 17.176 5.097 17.248 C 5.158 17.346 5.294 17.394 5.461 17.376 C 5.497 17.372 5.535 17.366 5.572 17.356 C 5.744 17.311 11.198 16.224 14.326 15.708 C 15.107 15.579 16.095 15.452 17.258 15.329 C 20.124 15.028 23.01 14.865 23.177 14.882 C 23.346 14.902 23.517 14.833 23.635 14.7 C 23.731 14.592 23.781 14.454 23.777 14.312 C 23.768 14.032 23.166 13.75 21.901 13.261 Z"
        fill="#ffffff" fill-rule="evenodd" id="path_1" />
    <path
        d="M 106.514 18.91 L 106.838 18.91 L 107.142 19.771 L 107.149 19.771 L 107.45 18.91 L 107.777 18.91 L 107.777 20.032 L 107.564 20.032 L 107.564 19.096 L 107.558 19.096 L 107.23 20.032 L 107.059 20.032 L 106.733 19.096 L 106.727 19.096 L 106.727 20.032 L 106.514 20.032 L 106.514 18.91 Z M 105.463 18.91 L 106.349 18.91 L 106.349 19.091 L 106.012 19.091 L 106.012 20.032 L 105.8 20.032 L 105.8 19.091 L 105.463 19.091 L 105.463 18.91 Z"
        fill="#231f20" fill-rule="evenodd" id="path_2" />
    <path
        d="M 39.023 15.472 C 39.504 14.937 40.357 15.04 41.104 14.833 C 42.407 14.473 44.44 13.528 44.385 11.868 C 44.336 10.421 42.936 9.569 41.298 9.323 C 40.144 13.269 38.205 16.783 36.353 20.215 C 35.794 21.254 35.244 22.784 33.792 22.904 C 33.075 22.287 33.318 21.392 33.429 20.754 C 33.756 18.893 34.625 16.877 35.388 15.258 C 36.46 12.979 37.94 10.849 39.436 9.216 C 38.762 9.237 38.339 9.331 37.841 9.018 C 37.405 7.104 39.413 6.697 40.797 6.612 C 43.995 6.412 47.219 8.23 47.139 11.516 C 47.074 14.177 44.203 15.924 41.49 16.143 C 40.729 16.205 39.555 16.3 39.023 15.472 Z M 85.953 13.11 C 86.44 12.161 86.763 11.303 87.285 10.131 C 87.513 9.615 88.804 7.256 87.579 6.958 C 87.56 6.953 87.505 6.951 87.486 6.958 C 85.404 7.542 83.913 11.527 82.62 13.179 C 81.031 13.141 79.097 13.014 79.178 14.181 C 79.243 15.133 80.636 15.32 81.443 15.785 C 81.146 16.713 79.368 20.429 80.885 21.385 C 82.475 22.387 83.304 20.053 83.663 19.072 C 84.114 17.837 84.451 16.741 84.972 15.811 C 86.226 15.721 87.61 15.293 88.636 15.278 C 88.362 16.367 87.755 17.884 88.411 19.291 C 89.575 20.038 90.443 19.222 90.848 18.47 C 91.493 17.273 91.59 15.143 92.071 14.183 C 92.82 13.734 93.993 13.682 94.175 12.703 C 93.745 12.283 93.076 12.716 92.504 12.692 C 92.66 11.908 93.054 11.079 93.326 10.27 C 93.593 9.47 94.12 8.488 93.481 7.655 C 92.181 7.875 91.627 9.055 91.076 9.972 C 90.466 10.982 89.979 12.073 89.38 13.042 C 88.226 13.053 87.19 13.176 85.953 13.11 Z M 53.653 7.267 C 52.241 6.806 49.911 7.913 49.159 9.007 C 48.676 9.71 48.508 11.089 49.443 11.345 C 50.617 11.667 51.505 10.321 52.004 9.777 C 52.768 8.945 53.436 8.37 53.653 7.267 Z M 107.899 9.256 C 106.75 8.958 106.275 9.835 105.602 10.64 C 105.059 11.288 104.728 11.941 104.417 12.032 C 103.651 12.259 102.45 11.544 101.796 11.733 C 101.575 11.796 101.216 12.094 101.207 12.476 C 101.183 13.474 102.397 13.627 103.373 13.986 C 102.94 14.924 102.375 16.072 102.072 17.339 C 101.794 18.507 101.482 20.222 102.134 21.45 C 102.932 21.32 103.12 20.373 103.387 19.776 C 104.31 17.721 105.176 15.586 106.328 13.821 C 108.14 13.699 110.009 13.191 111.441 12.831 C 111.955 12.703 112.687 12.755 112.872 12.188 C 112.5 11.747 111.772 11.902 111.178 11.896 C 109.768 11.878 108.246 11.978 107.287 11.96 C 107.624 11.247 108.594 10.381 107.899 9.256 Z M 69.863 15.98 C 70.206 14.576 71.472 14.037 72.92 13.668 C 73.313 13.685 72.75 14.085 72.787 14.32 C 72.694 14.577 72.557 14.792 72.579 15.158 C 71.681 15.441 71.053 15.973 69.863 15.98 Z M 62.545 17.233 C 63.39 16.472 64.078 15.73 65.037 14.824 C 65.684 14.211 67.426 13.156 66.926 11.848 C 66.653 11.139 65.415 10.991 64.535 10.99 C 63.277 10.988 61.674 11.378 60.389 11.333 C 59.935 11.317 59.523 10.948 59.175 11.231 C 58.003 13.68 61.705 13.518 63.522 13.318 C 62.205 14.739 59.887 15.606 58.74 17.205 C 58.44 17.622 58.062 18.285 58.33 18.976 C 58.82 19.367 59.379 19.098 59.915 19.08 C 62.351 19.006 65.142 19.804 66.954 18.948 C 67.325 18.772 67.555 18.451 67.913 18.206 C 70.133 18.917 71.709 17.655 73.004 16.937 C 73.788 17.991 76.986 18.059 77.25 16.688 C 76.744 15.832 75.357 16.315 75.101 15.365 C 74.834 14.382 76.516 12.97 75.466 11.912 C 75.054 11.631 74.606 12.066 74.351 11.903 C 71.169 11.505 67.855 13.235 67.049 15.586 C 66.833 16.208 66.987 17.003 67.117 17.548 C 65.766 18.106 64.02 17.433 62.545 17.233 Z M 49.614 12.281 C 49.18 12.082 48.996 12.215 48.794 12.462 C 47.49 14.039 44.524 16.494 44.792 19.063 C 44.889 19.983 45.418 21.149 46.603 20.758 C 46.952 20.45 46.811 20.036 46.974 19.64 C 47.923 17.323 50.665 15.698 49.614 12.281 Z M 58.392 13 C 57.322 12.618 55.514 12.863 53.922 12.78 C 52.496 12.703 50.636 12.184 50.728 13.41 C 50.835 14.861 53.749 14.708 55.274 14.564 C 54.201 15.556 52.93 16.519 51.716 17.527 C 50.657 18.407 48.728 19.451 49.255 21.431 C 50.444 22.105 51.855 21.427 53.425 21.368 C 56.382 21.259 58.907 22.143 61.724 21.898 C 62.825 21.801 64.55 21.434 64.464 20.236 C 63.839 19.869 63.31 20.253 62.708 20.317 C 59.817 20.623 57.092 19.01 53.804 19.223 C 54.651 18.342 55.766 17.462 56.736 16.537 C 57.62 15.692 58.936 14.628 58.392 13 Z M 95.375 18.223 C 95.751 17.124 96.218 14.586 94.671 14.201 C 94.143 14.07 93.417 14.221 93.03 14.562 C 93.031 15.139 93.671 15.019 93.673 15.595 C 93.277 16.768 91.614 18.956 93.037 20.261 C 94.316 21.433 96.414 20.024 97.058 19.544 C 97.55 19.179 97.973 18.684 98.374 18.619 C 98.526 20.119 99.103 21.153 100.456 21.343 C 100.857 20.906 100.514 20.41 100.518 19.849 C 100.525 18.957 100.831 17.927 101.029 17.052 C 101.236 16.128 101.765 15.111 101.075 14.25 C 100.27 14.072 99.93 14.745 99.574 15.172 C 98.444 16.525 97.214 17.569 95.375 18.223 Z"
        fill="#231f20" fill-rule="evenodd" id="path_3" />
</svg>
