<svg
    xmlns="http://www.w3.org/2000/svg"
    viewBox="0 0 34 32"
    id="vector">
    <path
        id="path"
        d="M 1.852 20.806 C 1.88 21.325 1.903 21.71 1.984 22.09 C 2.023 22.276 1.898 22.684 1.397 22.594 C 1.118 22.544 0.837 22.435 0.625 22.256 C 0.4 22.068 0.282 21.798 0.202 21.523 C 0.027 20.895 -0.356 19.011 0.814 19.037 C 1.076 19.043 1.3 19.157 1.461 19.357 C 1.774 19.751 1.825 20.322 1.852 20.806 Z M 33.764 12.941 C 33.764 12.941 32.64 3.612 24.618 1.087 C 20.142 -0.323 17.912 0.102 15.173 0.581 C 11.954 1.141 8.092 2.509 5.316 4.876 C 3.421 6.491 1.508 8.935 0.776 12.009 C 0.379 13.677 0.336 15.282 0.64 17.026 C 0.75 17.659 1.646 18.246 1.655 17.215 C 1.756 5.737 11.213 3.604 11.547 3.535 C 11.67 3.513 11.788 3.489 11.894 3.459 C 12.043 3.424 12.215 3.397 12.353 3.419 C 12.437 3.434 12.512 3.59 12.38 3.652 C 11.622 4.013 8.677 5.01 7.075 6.412 C 5.454 7.84 3.325 10.129 2.658 14.083 C 2.544 14.764 2.434 18.261 2.76 20.722 C 2.947 22.139 3.916 24.054 4.563 24.88 C 6.298 27.096 9.297 28.982 10.929 29.559 C 11.969 29.927 13.229 30.039 13.871 30.188 C 14.097 30.242 14.069 30.52 13.842 30.554 C 12.804 30.72 10.301 30.146 8.229 29.131 C 6.675 28.368 5.604 27.318 4.557 26.187 C 3.404 24.941 2.788 23.645 2.36 23.732 C 1.657 23.876 2.254 25.376 2.565 25.955 C 3.628 27.938 5.759 29.659 6.819 30.236 C 10.135 32.043 13.489 32.084 15.012 31.956 C 21.53 31.406 25.537 28.281 27.314 25.833 C 28.353 24.398 30.681 21.374 30.626 16.954 C 30.619 16.249 30.683 11.356 29.075 8.804 C 28.712 8.223 27.614 5.841 23.475 3.809 C 23.154 3.651 21.739 2.94 20.583 2.908 C 20.094 2.895 19.111 2.855 19.203 2.276 C 19.268 1.869 21.681 2.406 21.934 2.477 C 23.674 2.954 25.901 4.288 27.441 5.463 C 32.231 9.114 31.751 16.854 31.751 16.854 C 31.547 25.086 26.729 28.57 23.264 30.629 C 23.197 30.667 22.949 30.984 23.029 31.108 C 23.111 31.232 23.277 31.218 23.443 31.203 C 24.773 31.07 26.067 30.082 27.174 29.215 C 32.889 24.74 33.18 21.248 33.5 19.932 C 33.964 18.018 33.986 14.152 33.764 12.941 Z"
        fill="#c8102e"
        fill-rule="evenodd"/>
    <path
        id="path_1"
        d="M 25.04 15.155 C 24.876 15.092 24.727 15.035 24.607 14.986 C 24.172 14.809 23.099 14.527 22.237 14.3 C 21.759 14.174 21.264 14.044 21.171 14.006 C 21.077 13.866 20.87 12.965 20.769 12.528 C 20.718 12.303 20.676 12.125 20.653 12.048 C 20.575 11.773 20.477 11.619 20.21 11.648 C 20.209 11.648 20.19 11.65 20.188 11.65 C 20.094 11.664 18.816 11.988 16.723 12.52 C 15.315 12.878 13.86 13.248 13.768 13.264 C 13.651 13.281 13.583 13.344 12.669 14.775 C 12.395 15.204 12.053 15.739 11.999 15.796 C 11.966 15.817 11.772 15.906 11.567 16.001 C 10.986 16.271 9.904 16.772 8.976 17.303 C 7.952 17.89 5.98 19.141 5.833 19.419 C 5.778 19.523 5.776 19.63 5.828 19.712 C 5.898 19.824 6.053 19.878 6.244 19.858 C 6.285 19.854 6.328 19.846 6.371 19.835 C 6.567 19.784 12.803 18.542 16.379 17.952 C 17.273 17.804 18.402 17.659 19.733 17.519 C 23.009 17.175 26.308 16.988 26.499 17.008 C 26.693 17.031 26.889 16.952 27.023 16.8 C 27.133 16.676 27.191 16.519 27.186 16.357 C 27.176 16.037 26.487 15.715 25.04 15.155 Z"
        fill="#ffffff"
        fill-rule="evenodd"/>
</svg>
