<svg id="vector" viewBox="0 0 33 32" xmlns="http://www.w3.org/2000/svg">
    <defs>
        <clipPath id="clip_path">
            <path d="M 0 0 L 33 0 L 33 32 L 0 32 Z" />
        </clipPath>
        <clipPath id="clip_path_1">
            <path d="M 0 0 L 33 0 L 33 32 L 0 32 Z" />
        </clipPath>
        <clipPath id="clip_path_2">
            <path d="M 0 0 L 33 0 L 33 32 L 0 32 Z" />
        </clipPath>
        <clipPath id="clip_path_3">
            <path d="M 0 0 L 33 0 L 33 32 L 0 32 Z" />
        </clipPath>
        <clipPath id="clip_path_4">
            <path d="M 0 0 L 33 0 L 33 32 L 0 32 Z" />
        </clipPath>
        <clipPath id="clip_path_5">
            <path d="M 0 0 L 33 0 L 33 32 L 0 32 Z" />
        </clipPath>
    </defs>
    <g id="group">
        <path clip-path="url(#clip_path)" d="M 23.462 23.376 C 23.262 23.082 22.993 22.842 22.68 22.677 C 22.366 22.512 22.017 22.428 21.664 22.431 C 21.215 22.426 20.777 22.571 20.418 22.843 C 20.181 23.008 19.979 23.218 19.823 23.463 C 19.667 23.707 19.561 23.98 19.509 24.265 C 19.458 24.551 19.463 24.845 19.525 25.129 C 19.586 25.412 19.702 25.681 19.867 25.92 C 20.076 26.21 20.346 26.45 20.658 26.622 L 23.51 25.871 C 23.755 25.5 23.882 25.062 23.874 24.616 C 23.865 24.17 23.721 23.737 23.462 23.376 Z"
            fill="#d70926"
            id="path" />
        <path clip-path="url(#clip_path_1)" d="M 5.8 19.452 C 6.255 19.454 6.7 19.31 7.07 19.04 C 7.304 18.874 7.504 18.662 7.658 18.417 C 7.812 18.172 7.916 17.899 7.965 17.613 C 8.014 17.327 8.007 17.034 7.943 16.751 C 7.88 16.468 7.763 16.201 7.597 15.964 C 7.464 15.786 7.311 15.623 7.141 15.479 L 5.416 19.428 L 5.8 19.452 Z"
            fill="#d70926"
            id="path_1" />
        <path clip-path="url(#clip_path_2)" d="M 11.743 26.235 C 11.517 25.97 11.237 25.758 10.923 25.611 C 10.609 25.465 10.267 25.389 9.921 25.387 C 9.367 25.379 8.83 25.577 8.411 25.944 C 8.172 26.145 7.974 26.392 7.83 26.67 C 7.686 26.949 7.598 27.254 7.571 27.567 C 7.544 27.88 7.58 28.196 7.674 28.495 C 7.769 28.795 7.922 29.072 8.124 29.311 C 8.276 29.497 8.454 29.66 8.651 29.796 L 12.006 28.899 C 12.236 28.481 12.334 28.002 12.287 27.526 C 12.24 27.049 12.05 26.599 11.743 26.235 Z"
            fill="#d70926"
            id="path_2" />
        <path clip-path="url(#clip_path_3)" d="M 27.871 21.268 C 27.85 20.768 27.769 20.272 27.631 19.791 C 27.551 19.586 27.431 19.399 27.279 19.241 C 27.127 19.083 26.945 18.957 26.745 18.87 L 26.433 18.725 C 25.743 18.418 25.169 17.893 24.798 17.23 C 24.426 16.566 24.277 15.799 24.372 15.043 C 24.412 14.652 24.31 14.26 24.085 13.939 C 23.86 13.618 23.528 13.391 23.15 13.299 L 21.904 12.96 C 21.296 12.792 20.741 12.467 20.296 12.017 C 19.85 11.567 19.529 11.006 19.363 10.392 L 19.244 9.932 C 19.151 9.563 18.937 9.237 18.636 9.008 C 18.335 8.779 17.966 8.66 17.59 8.672 L 16.08 8.672 C 15.747 8.675 15.416 8.626 15.098 8.527 C 14.358 8.293 13.717 7.815 13.276 7.17 L 11.766 5.014 L 7.932 13.686 C 8.411 13.989 8.826 14.384 9.154 14.849 C 9.467 15.294 9.69 15.797 9.81 16.329 C 9.929 16.861 9.942 17.412 9.849 17.95 C 9.656 19.032 9.055 19.996 8.172 20.639 C 7.472 21.122 6.646 21.383 5.799 21.39 C 5.402 21.383 5.008 21.326 4.625 21.22 L 0.023 31.636 C 0.002 31.679 -0.006 31.727 0 31.774 C 0.006 31.822 0.025 31.866 0.056 31.903 C 0.086 31.939 0.127 31.965 0.172 31.978 C 0.218 31.991 0.266 31.99 0.311 31.976 L 6.494 30.352 C 5.875 29.5 5.577 28.452 5.655 27.397 C 5.816 26.305 6.383 25.315 7.24 24.63 C 8.098 23.946 9.182 23.618 10.271 23.714 C 11.36 23.809 12.371 24.322 13.099 25.146 C 13.827 25.97 14.216 27.044 14.187 28.148 C 14.191 28.214 14.183 28.279 14.163 28.342 L 18.453 27.203 L 18.309 27.034 C 17.996 26.589 17.773 26.086 17.653 25.554 C 17.533 25.022 17.518 24.471 17.609 23.933 C 17.701 23.395 17.896 22.88 18.185 22.419 C 18.474 21.957 18.85 21.558 19.291 21.244 C 19.991 20.761 20.817 20.5 21.664 20.493 C 22.326 20.494 22.978 20.655 23.566 20.962 C 24.154 21.27 24.66 21.716 25.043 22.262 C 25.646 23.146 25.894 24.228 25.738 25.29 L 28.854 24.466 L 28.446 23.691 C 28.039 22.916 27.943 22.044 27.871 21.268 Z M 18.285 18.798 C 17.603 19.301 16.781 19.573 15.936 19.573 C 15.274 19.574 14.621 19.414 14.033 19.106 C 13.445 18.799 12.938 18.352 12.557 17.805 C 11.936 16.901 11.687 15.789 11.862 14.704 C 11.954 14.164 12.153 13.648 12.445 13.186 C 12.737 12.724 13.117 12.326 13.564 12.015 C 14.248 11.518 15.07 11.255 15.912 11.264 C 16.572 11.262 17.223 11.419 17.811 11.722 C 18.399 12.026 18.906 12.466 19.291 13.008 C 19.603 13.454 19.825 13.959 19.943 14.492 C 20.061 15.025 20.074 15.576 19.98 16.115 C 19.887 16.653 19.689 17.167 19.398 17.627 C 19.107 18.088 18.729 18.486 18.285 18.798 Z"
            fill="#d70926"
            id="path_3" />
        <path clip-path="url(#clip_path_4)" d="M 15.912 13.178 C 15.465 13.184 15.031 13.328 14.666 13.589 C 14.285 13.863 14 14.252 13.852 14.699 C 13.704 15.147 13.7 15.63 13.842 16.081 C 13.983 16.53 14.262 16.924 14.638 17.203 C 15.015 17.482 15.469 17.634 15.936 17.635 C 16.383 17.629 16.818 17.485 17.183 17.223 C 17.563 16.95 17.848 16.561 17.997 16.113 C 18.145 15.666 18.148 15.182 18.007 14.732 C 17.866 14.282 17.587 13.889 17.21 13.61 C 16.834 13.331 16.379 13.179 15.912 13.178 Z"
            fill="#d70926"
            id="path_4" />
        <path clip-path="url(#clip_path_5)" d="M 14.643 0.072 C 14.573 0.031 14.495 0.006 14.415 -0.003 C 14.335 -0.012 14.254 -0.003 14.177 0.022 C 14.1 0.047 14.029 0.088 13.969 0.143 C 13.909 0.198 13.861 0.264 13.828 0.339 L 12.678 2.979 L 14.835 6.056 C 15.028 6.353 15.315 6.575 15.649 6.686 L 16.057 6.734 L 17.591 6.734 C 18.393 6.724 19.176 6.986 19.814 7.477 C 20.453 7.969 20.91 8.662 21.113 9.447 L 21.209 9.908 C 21.291 10.193 21.444 10.453 21.654 10.661 C 21.864 10.869 22.123 11.018 22.408 11.094 L 23.654 11.434 C 24.48 11.65 25.2 12.163 25.68 12.876 C 26.161 13.588 26.369 14.453 26.266 15.309 C 26.225 15.652 26.297 15.999 26.47 16.297 C 26.643 16.595 26.908 16.826 27.225 16.957 L 27.536 17.102 C 28.409 17.5 29.089 18.232 29.429 19.137 C 29.62 19.767 29.741 20.417 29.789 21.075 C 29.798 21.656 29.911 22.231 30.124 22.77 L 30.747 23.957 L 32.545 23.473 L 32.641 23.424 C 32.768 23.316 32.867 23.177 32.93 23.021 C 32.992 22.865 33.016 22.696 33 22.528 C 32.856 11.191 26.458 3.27 14.643 0.072 Z"
            fill="#d70926"
            id="path_5" />
    </g>
</svg>
